<svg width="22" height="22" viewBox="0 0 22 22" fill="none" xmlns="http://www.w3.org/2000/svg">
<g clip-path="url(#clip0_0_5)">
<path d="M2.13242 16.4163C2.03396 16.8644 1.83457 17.2309 1.57662 17.4378C1.31867 17.6447 1.02248 17.6758 0.750994 17.5245C0.479507 17.3731 0.254116 17.0513 0.122712 16.6273C-0.00869187 16.2034 -0.0357521 15.7107 0.0472812 15.254C0.0875634 15.0528 0.133063 14.851 0.183651 14.6563C0.271632 14.308 0.401403 13.8277 0.579563 13.2593C0.942483 12.1227 1.50776 10.6083 2.34137 9.094C4.024 6.03233 6.77999 3 10.9877 3C15.1953 3 17.9513 6.03233 19.6339 9.094C20.5314 10.7374 21.2597 12.6169 21.7895 14.6563L21.8906 15.0707C21.8972 15.1 21.9192 15.2907 21.9412 15.474L21.9852 15.8333C21.9852 15.8333 22.17 17.0543 21.233 17.5713C20.957 17.725 20.6558 17.69 20.3953 17.4743C20.1348 17.2585 19.9361 16.8794 19.8429 16.42V16.409L19.8297 16.3503L19.7615 16.0643C19.3294 14.4171 18.7388 12.8986 18.0129 11.569C16.6712 9.138 14.4783 6.66667 10.9877 6.66667C7.49703 6.66667 5.30412 9.13433 3.96241 11.5727C3.23673 12.9012 2.64608 14.4184 2.2138 16.0643L2.14782 16.3503L2.13242 16.4163ZM6.58863 17.6667C6.58863 15.7217 7.0521 13.8565 7.87708 12.4812C8.70205 11.106 9.82096 10.3333 10.9877 10.3333C12.1544 10.3333 13.2733 11.106 14.0982 12.4812C14.9232 13.8565 15.3867 15.7217 15.3867 17.6667C15.3867 19.6116 14.9232 21.4768 14.0982 22.8521C13.2733 24.2274 12.1544 25 10.9877 25C9.82096 25 8.70205 24.2274 7.87708 22.8521C7.0521 21.4768 6.58863 19.6116 6.58863 17.6667Z" fill="black"/>
</g>
<defs>
<clipPath id="clip0_0_5">
<rect width="22" height="22" fill="white"/>
</clipPath>
</defs>
</svg>
