<svg width="26" height="26" viewBox="0 0 26 26" fill="none" xmlns="http://www.w3.org/2000/svg">
<path d="M25.9824 1.05953C26.1091 0.382502 25.5307 -0.188359 24.9664 0.0587015L0.490037 10.7802C0.195457 10.9093 0.000610804 11.2332 1.43342e-06 11.595C-0.000607937 11.9569 0.193121 12.2817 0.487294 12.4121L7.36317 15.4593V25.0569C7.36317 25.4618 7.60545 25.8136 7.94873 25.9073C8.28972 26.0003 8.64529 25.8141 8.80515 25.4503L11.6489 18.9749L18.5888 24.8848C19.011 25.2443 19.6178 25.0156 19.7714 24.4379C26.251 0.0606252 25.9708 1.12077 25.9824 1.05953ZM19.9404 4.13136L8.01692 13.875L2.88664 11.6015L19.9404 4.13136ZM8.8866 15.3104L19.2798 6.81727C10.3366 17.6431 10.8037 17.0733 10.7647 17.1335C10.7067 17.223 10.8655 16.8743 8.8866 21.3803V15.3104ZM18.6293 22.7424L12.5206 17.5403L23.566 4.16982L18.6293 22.7424Z" fill="white"/>
</svg>
