<svg width="77" height="62" viewBox="0 0 77 62" fill="none" xmlns="http://www.w3.org/2000/svg">
<path d="M72.38 31.6458C72.38 29.6308 72.1554 27.6933 71.7383 25.8333H38.5V36.8254H57.4933C56.6752 40.3775 54.1888 43.3871 50.451 45.4021V52.5321H61.8567C68.53 47.585 72.38 40.3 72.38 31.6458Z" fill="#4285F4"/>
<path d="M38.5 59.4167C48.0287 59.4167 56.0175 56.8721 61.8566 52.5321L50.451 45.4021C47.2908 47.1071 43.2483 48.1146 38.5 48.1146C29.3081 48.1146 21.5279 43.1158 18.7527 36.3992H6.96204V43.7617C12.7691 53.0488 24.7041 59.4167 38.5 59.4167Z" fill="#34A853"/>
<path d="M18.7528 36.3992C18.0469 34.6942 17.6459 32.8729 17.6459 31C17.6459 29.1271 18.0469 27.3058 18.7528 25.6008V18.2383H6.96213C4.49171 22.1982 3.2062 26.5686 3.20838 31C3.20838 35.5854 4.57192 39.9254 6.96213 43.7617L18.7528 36.3992Z" fill="#FBBC05"/>
<path d="M38.5 13.8854C43.6814 13.8854 48.3335 15.3192 51.991 18.135L62.1133 9.98458C56.0014 5.39916 48.0127 2.58333 38.5 2.58333C24.7041 2.58333 12.7691 8.95124 6.96204 18.2383L18.7527 25.6008C21.5279 18.8842 29.3081 13.8854 38.5 13.8854Z" fill="#EA4335"/>
</svg>
