<svg width="77" height="62" viewBox="0 0 77 62" fill="none" xmlns="http://www.w3.org/2000/svg">
<path d="M77 31C77 13.8792 59.763 -7.62939e-06 38.5 -7.62939e-06C17.237 -7.62939e-06 0 13.8792 0 31C0 46.473 14.0789 59.2978 32.4844 61.6234V39.9609H22.709V31H32.4844V24.1703C32.4844 16.4009 38.2322 12.1094 47.0264 12.1094C51.2386 12.1094 55.6445 12.7148 55.6445 12.7148V20.3437H50.7898C46.0071 20.3437 44.5156 22.7333 44.5156 25.1849V31H55.1934L53.4864 39.9609H44.5156V61.6234C62.9211 59.2978 77 46.473 77 31Z" fill="#1877F2"/>
<path d="M53.4864 39.9609L55.1934 31H44.5156V25.1849C44.5156 22.7334 46.0071 20.3438 50.7898 20.3438H55.6445V12.7148C55.6445 12.7148 51.2386 12.1094 47.0264 12.1094C38.2322 12.1094 32.4844 16.4009 32.4844 24.1703V31H22.709V39.9609H32.4844V61.6234C34.4445 61.871 36.4535 62 38.5 62C40.5465 62 42.5555 61.871 44.5156 61.6234V39.9609H53.4864Z" fill="white"/>
</svg>
